<svg id="Layer_1" data-name="Layer 1" xmlns="http://www.w3.org/2000/svg" xmlns:xlink="http://www.w3.org/1999/xlink" viewBox="0 0 170.47 335"><defs><style>.cls-1{fill:#3d3567;}.cls-2{fill:#f1f3f2;}.cls-20,.cls-3,.cls-5,.cls-6,.cls-9{fill:#606a71;}.cls-19,.cls-4{fill:none;}.cls-4{stroke:#3e4056;stroke-miterlimit:10;stroke-width:0.32px;}.cls-5{font-size:5.02px;}.cls-20,.cls-40,.cls-47,.cls-5,.cls-6,.cls-9{font-family:Montserrat-Bold, Montserrat;font-weight:700;}.cls-6{font-size:6.48px;}.cls-7{letter-spacing:-0.02em;}.cls-8{letter-spacing:0em;}.cls-9{font-size:4px;}.cls-10{letter-spacing:0em;}.cls-11{letter-spacing:-0.01em;}.cls-12{letter-spacing:-0.01em;}.cls-13{letter-spacing:-0.01em;}.cls-14{letter-spacing:0.01em;}.cls-15{letter-spacing:-0.01em;}.cls-16{letter-spacing:-0.02em;}.cls-17{opacity:0.3;}.cls-18{fill:url(#Безымянный_градиент_15);}.cls-19{stroke-linecap:round;stroke-linejoin:round;stroke:url(#Безымянный_градиент_15-2);}.cls-20{font-size:8.42px;}.cls-21{fill:url(#Безымянный_градиент_15-3);}.cls-22{fill:url(#Безымянный_градиент_15-4);}.cls-23{fill:url(#Безымянный_градиент_15-5);}.cls-24{fill:url(#Безымянный_градиент_15-6);}.cls-25{fill:url(#Безымянный_градиент_15-7);}.cls-26{fill:url(#Безымянный_градиент_15-8);}.cls-27{fill:url(#Безымянный_градиент_15-9);}.cls-28{fill:url(#Безымянный_градиент_2);}.cls-29{fill:url(#Безымянный_градиент_2-2);}.cls-30{fill:url(#Безымянный_градиент_2-3);}.cls-31{fill:url(#Безымянный_градиент_2-4);}.cls-32{fill:url(#Безымянный_градиент_2-5);}.cls-33{fill:url(#Безымянный_градиент_2-6);}.cls-34{fill:url(#Безымянный_градиент_2-7);}.cls-35{fill:url(#Безымянный_градиент_2-8);}.cls-36{fill:url(#Безымянный_градиент_2-9);}.cls-37{fill:url(#Безымянный_градиент_2-10);}.cls-38{fill:url(#Безымянный_градиент_2-11);}.cls-39{fill:url(#Безымянный_градиент_2-12);}.cls-40{font-size:4.45px;}.cls-40,.cls-47,.cls-52{fill:#627078;}.cls-41{letter-spacing:0.01em;}.cls-42{letter-spacing:0em;}.cls-43{letter-spacing:-0.01em;}.cls-44{letter-spacing:-0.01em;}.cls-45{fill:#fff;}.cls-46{fill:url(#Безымянный_градиент_15-10);}.cls-47,.cls-52{font-size:3.59px;}.cls-48{letter-spacing:-0.01em;}.cls-49{letter-spacing:0.02em;}.cls-50{letter-spacing:-0.01em;}.cls-51{letter-spacing:-0.02em;}.cls-52{font-family:Montserrat-Regular, Montserrat;}.cls-53{fill:url(#Безымянный_градиент_15-11);}.cls-54{fill:url(#Безымянный_градиент_15-12);}.cls-55{letter-spacing:0.01em;}.cls-56{letter-spacing:-0.01em;}.cls-57{letter-spacing:-0.01em;}.cls-58{fill:url(#Безымянный_градиент_15-13);}</style><linearGradient id="Безымянный_градиент_15" x1="332.17" y1="522.63" x2="339.63" y2="522.63" gradientUnits="userSpaceOnUse"><stop offset="0" stop-color="#7862d8"/><stop offset="0.22" stop-color="#6c55d7"/><stop offset="0.7" stop-color="#573ed5"/><stop offset="1" stop-color="#4f35d4"/></linearGradient><linearGradient id="Безымянный_градиент_15-2" x1="31.64" y1="88.77" x2="35.6" y2="88.77" xlink:href="#Безымянный_градиент_15"/><linearGradient id="Безымянный_градиент_15-3" x1="349.38" y1="522.63" x2="356.83" y2="522.63" xlink:href="#Безымянный_градиент_15"/><linearGradient id="Безымянный_градиент_15-4" x1="366.58" y1="522.63" x2="374.04" y2="522.63" xlink:href="#Безымянный_градиент_15"/><linearGradient id="Безымянный_градиент_15-5" x1="383.79" y1="522.63" x2="391.25" y2="522.63" xlink:href="#Безымянный_градиент_15"/><linearGradient id="Безымянный_градиент_15-6" x1="400.99" y1="522.63" x2="408.45" y2="522.63" xlink:href="#Безымянный_градиент_15"/><linearGradient id="Безымянный_градиент_15-7" x1="418.2" y1="522.63" x2="425.66" y2="522.63" xlink:href="#Безымянный_градиент_15"/><linearGradient id="Безымянный_градиент_15-8" x1="435.41" y1="522.63" x2="442.86" y2="522.63" xlink:href="#Безымянный_градиент_15"/><linearGradient id="Безымянный_градиент_15-9" x1="65.58" y1="63.24" x2="70.49" y2="63.24" xlink:href="#Безымянный_градиент_15"/><linearGradient id="Безымянный_градиент_2" x1="92.51" y1="224.36" x2="95.53" y2="224.36" gradientUnits="userSpaceOnUse"><stop offset="0" stop-color="#7862d6"/><stop offset="0.22" stop-color="#6c55d5"/><stop offset="0.7" stop-color="#573ed3"/><stop offset="1" stop-color="#4f35d2"/></linearGradient><linearGradient id="Безымянный_градиент_2-2" x1="92.51" y1="241.46" x2="95.53" y2="241.46" xlink:href="#Безымянный_градиент_2"/><linearGradient id="Безымянный_градиент_2-3" x1="36.62" y1="224.36" x2="39.64" y2="224.36" xlink:href="#Безымянный_градиент_2"/><linearGradient id="Безымянный_градиент_2-4" x1="36.62" y1="247.85" x2="39.64" y2="247.85" xlink:href="#Безымянный_градиент_2"/><linearGradient id="Безымянный_градиент_2-5" x1="55.25" y1="224.36" x2="58.27" y2="224.36" xlink:href="#Безымянный_градиент_2"/><linearGradient id="Безымянный_градиент_2-6" x1="55.25" y1="241.46" x2="58.27" y2="241.46" xlink:href="#Безымянный_градиент_2"/><linearGradient id="Безымянный_градиент_2-7" x1="73.88" y1="224.36" x2="76.9" y2="224.36" xlink:href="#Безымянный_градиент_2"/><linearGradient id="Безымянный_градиент_2-8" x1="73.88" y1="231.25" x2="76.9" y2="231.25" xlink:href="#Безымянный_градиент_2"/><linearGradient id="Безымянный_градиент_2-9" x1="111.14" y1="224.36" x2="114.16" y2="224.36" xlink:href="#Безымянный_градиент_2"/><linearGradient id="Безымянный_градиент_2-10" x1="111.14" y1="256.53" x2="114.16" y2="256.53" xlink:href="#Безымянный_градиент_2"/><linearGradient id="Безымянный_градиент_2-11" x1="129.77" y1="224.36" x2="132.79" y2="224.36" xlink:href="#Безымянный_градиент_2"/><linearGradient id="Безымянный_градиент_2-12" x1="129.77" y1="248.99" x2="132.79" y2="248.99" xlink:href="#Безымянный_градиент_2"/><linearGradient id="Безымянный_градиент_15-10" x1="26.59" y1="143.72" x2="29.54" y2="143.72" xlink:href="#Безымянный_градиент_15"/><linearGradient id="Безымянный_градиент_15-11" x1="33.18" y1="143.72" x2="44.86" y2="143.72" xlink:href="#Безымянный_градиент_15"/><linearGradient id="Безымянный_градиент_15-12" x1="88" y1="143.72" x2="90.96" y2="143.72" xlink:href="#Безымянный_градиент_15"/><linearGradient id="Безымянный_градиент_15-13" x1="96.45" y1="143.72" x2="108.14" y2="143.72" xlink:href="#Безымянный_градиент_15"/></defs><title>IMG2</title><path class="cls-1" d="M28.22,0H142.41a25.13,25.13,0,0,1,25.13,25.13V309.86A25.13,25.13,0,0,1,142.41,335H28.22A25.14,25.14,0,0,1,3.09,309.86V25.14A25.14,25.14,0,0,1,28.22,0Z"/><path class="cls-2" d="M459.65,459V743.72a15,15,0,0,1-15,15H330.5a15,15,0,0,1-15-15V459a15,15,0,0,1,15-14.95h13.28a2.76,2.76,0,0,1,2.76,2.76h0a8.71,8.71,0,0,0,8.72,8.72h65A8.71,8.71,0,0,0,429,446.8h0a2.77,2.77,0,0,1,2.76-2.76h13A15,15,0,0,1,459.65,459Z" transform="translate(-302.28 -433.86)"/><path class="cls-1" d="M470.48,550.05h0a2.28,2.28,0,0,1-2.28-2.27V513.49a2.29,2.29,0,0,1,2.28-2.28h0a2.28,2.28,0,0,1,2.27,2.28v34.29A2.27,2.27,0,0,1,470.48,550.05Z" transform="translate(-302.28 -433.86)"/><path class="cls-1" d="M305.53,527.63h0a3.1,3.1,0,0,1-3.09-3.09V505.2a3.1,3.1,0,0,1,3.09-3.09h0a3.1,3.1,0,0,1,3.09,3.09v19.34A3.1,3.1,0,0,1,305.53,527.63Z" transform="translate(-302.28 -433.86)"/><path class="cls-1" d="M305.37,558h0a3.1,3.1,0,0,1-3.09-3.09V535.59a3.1,3.1,0,0,1,3.09-3.09h0a3.1,3.1,0,0,1,3.09,3.09v19.34A3.1,3.1,0,0,1,305.37,558Z" transform="translate(-302.28 -433.86)"/><path class="cls-1" d="M305.37,492.28h0a2.45,2.45,0,0,1-2.44-2.44v-9.75a2.45,2.45,0,0,1,2.44-2.44h0a2.45,2.45,0,0,1,2.44,2.44v9.75A2.45,2.45,0,0,1,305.37,492.28Z" transform="translate(-302.28 -433.86)"/><rect class="cls-3" x="132.16" y="17.67" width="1.12" height="4.53"/><rect class="cls-3" x="130.3" y="18.68" width="1.12" height="3.53"/><rect class="cls-3" x="128.44" y="19.94" width="1.12" height="2.27"/><rect class="cls-3" x="126.58" y="20.95" width="1.12" height="1.25"/><path class="cls-4" d="M440.53,456.41" transform="translate(-302.28 -433.86)"/><path class="cls-4" d="M440.53,456.41" transform="translate(-302.28 -433.86)"/><path class="cls-3" d="M441.23,455.36a.7.7,0,0,1-.71.7.7.7,0,0,1-.7-.7.7.7,0,0,1,.7-.71A.71.71,0,0,1,441.23,455.36Z" transform="translate(-302.28 -433.86)"/><path class="cls-3" d="M441.85,454.43a.34.34,0,0,1-.23-.1,1.55,1.55,0,0,0-2.2,0,.32.32,0,0,1-.46-.44,2.21,2.21,0,0,1,3.13,0,.32.32,0,0,1,0,.45A.31.31,0,0,1,441.85,454.43Z" transform="translate(-302.28 -433.86)"/><path class="cls-3" d="M442.44,453.41a.28.28,0,0,1-.21-.08,2.68,2.68,0,0,0-3.41,0,.32.32,0,1,1-.42-.48,3.35,3.35,0,0,1,4.25,0,.33.33,0,0,1,0,.45A.34.34,0,0,1,442.44,453.41Z" transform="translate(-302.28 -433.86)"/><path class="cls-3" d="M443.06,452.34a.26.26,0,0,1-.19-.07,3.9,3.9,0,0,0-4.68,0,.32.32,0,0,1-.45,0,.33.33,0,0,1,.06-.45,4.53,4.53,0,0,1,5.46,0,.32.32,0,0,1,.05.45A.3.3,0,0,1,443.06,452.34Z" transform="translate(-302.28 -433.86)"/><text class="cls-5" transform="translate(21.74 21.67)">10:12</text><path class="cls-3" d="M452.93,455.94h-5.86a1.17,1.17,0,0,1-1.17-1.17V453a1.18,1.18,0,0,1,1.17-1.17h5.86A1.17,1.17,0,0,1,454.1,453v1.75A1.17,1.17,0,0,1,452.93,455.94Zm-5.86-3.77a.85.85,0,0,0-.85.85v1.75a.86.86,0,0,0,.85.86h5.86a.86.86,0,0,0,.85-.86V453a.85.85,0,0,0-.85-.85Z" transform="translate(-302.28 -433.86)"/><rect class="cls-3" x="144.46" y="18.59" width="6.04" height="2.89" rx="0.78"/><path class="cls-3" d="M454.82,454.9h-1v-2h1Zm-.72-.32h.4v-1.36h-.4Z" transform="translate(-302.28 -433.86)"/><text class="cls-6" transform="translate(82.67 41.34)">S<tspan class="cls-7" x="4.13" y="0">t</tspan><tspan class="cls-8" x="6.84" y="0">eps</tspan></text><path class="cls-3" d="M375.35,477.42a.7.7,0,0,1-.46-.19l-3.46-3.46a.66.66,0,0,1,0-.92l3.46-3.46a.65.65,0,0,1,.92.92l-3,3,3,3a.66.66,0,0,1,0,.92A.68.68,0,0,1,375.35,477.42Z" transform="translate(-302.28 -433.86)"/><text class="cls-9" transform="translate(78.52 272.38)"><tspan class="cls-10">L</tspan><tspan x="2.4" y="0">o</tspan><tspan class="cls-11" x="5.02" y="0">r</tspan><tspan x="6.71" y="0">em</tspan></text><path class="cls-3" d="M362.14,724.2H360a.4.4,0,1,1,0-.8h2.11a.4.4,0,0,1,0,.8Z" transform="translate(-302.28 -433.86)"/><path class="cls-3" d="M361.08,725.21a4.1,4.1,0,1,0,4.09,4.1A4.1,4.1,0,0,0,361.08,725.21Zm0,6.72a2.62,2.62,0,1,1,2.62-2.62A2.63,2.63,0,0,1,361.08,731.93Z" transform="translate(-302.28 -433.86)"/><path class="cls-3" d="M361.09,729.71a.38.38,0,0,1-.33-.18.39.39,0,0,1,.1-.55l1.24-.86a.41.41,0,0,1,.56.11.39.39,0,0,1-.11.55l-1.24.86A.47.47,0,0,1,361.09,729.71Z" transform="translate(-302.28 -433.86)"/><path class="cls-3" d="M391.41,724.94v1.6l-.12,0L386.63,728,382,726.56l-.12,0v-1.6Z" transform="translate(-302.28 -433.86)"/><path class="cls-3" d="M386.74,728.78l4.67-1.42v4.51h-9.57v-4.52l4.67,1.43a.25.25,0,0,0,.12,0A.2.2,0,0,0,386.74,728.78Z" transform="translate(-302.28 -433.86)"/><rect class="cls-3" x="106.89" y="290.55" width="5.97" height="1.44"/><polygon class="cls-3" points="106.89 292.79 112.86 292.79 112.86 298.53 109.87 296.49 106.89 298.53 106.89 292.79"/><circle class="cls-3" cx="33.27" cy="292.01" r="2.2"/><path class="cls-3" d="M339.64,733.14h-8.18c0-5,4-5.07,4.09-5.07S339.64,728.1,339.64,733.14Z" transform="translate(-302.28 -433.86)"/><path class="cls-3" d="M440.69,732.53h-1.57a2.09,2.09,0,0,0,0-2.23,1.34,1.34,0,0,1-.41.53,6.7,6.7,0,0,0-1-2.23A5.06,5.06,0,0,0,436.6,731l-.51-.14a1.89,1.89,0,0,0,.14,1.7h-1.61s-1.22-2.07-.27-3.58l1.06.3s.49-3.28,2.23-5c0,0,2.18,3.25,2.18,4.7a3,3,0,0,0,.87-1.12S442.3,730.46,440.69,732.53Z" transform="translate(-302.28 -433.86)"/><text class="cls-9" transform="translate(26.61 305.32)"><tspan class="cls-12">Pr</tspan><tspan x="4.58" y="0">ofile</tspan></text><text class="cls-9" transform="translate(53.03 305.32)"><tspan class="cls-13">T</tspan><tspan x="2.42" y="0">i</tspan><tspan class="cls-14" x="3.63" y="0">m</tspan><tspan x="7.85" y="0">er</tspan></text><text class="cls-9" transform="translate(80.44 305.32)">In<tspan class="cls-15" x="4.08" y="0">f</tspan><tspan x="5.6" y="0">o</tspan></text><text class="cls-9" transform="translate(103.67 305.32)">Ma<tspan class="cls-10" x="6.29" y="0">r</tspan><tspan class="cls-16" x="8" y="0">k</tspan><tspan x="10.56" y="0">s</tspan></text><text class="cls-9" transform="translate(127.1 305.32)"><tspan class="cls-10">C</tspan><tspan x="2.92" y="0">alo</tspan><tspan class="cls-10" x="9.21" y="0">r</tspan><tspan x="10.92" y="0">ies</tspan></text><text class="cls-9" transform="translate(78.52 272.38)"><tspan class="cls-10">L</tspan><tspan x="2.4" y="0">o</tspan><tspan class="cls-11" x="5.02" y="0">r</tspan><tspan x="6.71" y="0">em</tspan></text><text class="cls-9" transform="translate(78.52 272.38)"><tspan class="cls-10">L</tspan><tspan x="2.4" y="0">o</tspan><tspan class="cls-11" x="5.02" y="0">r</tspan><tspan x="6.71" y="0">em</tspan></text><text class="cls-9" transform="translate(78.52 272.38)"><tspan class="cls-10">L</tspan><tspan x="2.4" y="0">o</tspan><tspan class="cls-11" x="5.02" y="0">r</tspan><tspan x="6.71" y="0">em</tspan></text><g class="cls-17"><path class="cls-18" d="M339.63,522.63a3.73,3.73,0,1,1-3.73-3.73A3.73,3.73,0,0,1,339.63,522.63Z" transform="translate(-302.28 -433.86)"/></g><polyline class="cls-19" points="32.14 88.77 33.64 90.09 35.1 87.45"/><text class="cls-20" transform="translate(30.93 78.25)">S</text><g class="cls-17"><path class="cls-21" d="M356.83,522.63a3.73,3.73,0,1,1-3.72-3.73A3.72,3.72,0,0,1,356.83,522.63Z" transform="translate(-302.28 -433.86)"/></g><text class="cls-20" transform="translate(46.81 78.25)">M</text><g class="cls-17"><path class="cls-22" d="M374,522.63a3.73,3.73,0,1,1-3.73-3.73A3.73,3.73,0,0,1,374,522.63Z" transform="translate(-302.28 -433.86)"/></g><text class="cls-20" transform="translate(65.43 78.25)">T</text><g class="cls-17"><path class="cls-23" d="M391.25,522.63a3.73,3.73,0,1,1-3.73-3.73A3.73,3.73,0,0,1,391.25,522.63Z" transform="translate(-302.28 -433.86)"/></g><text class="cls-20" transform="translate(80.34 78.25)">W</text><g class="cls-17"><path class="cls-24" d="M408.45,522.63a3.73,3.73,0,1,1-3.73-3.73A3.73,3.73,0,0,1,408.45,522.63Z" transform="translate(-302.28 -433.86)"/></g><text class="cls-20" transform="translate(99.84 78.25)">T</text><g class="cls-17"><path class="cls-25" d="M425.66,522.63a3.73,3.73,0,1,1-3.73-3.73A3.73,3.73,0,0,1,425.66,522.63Z" transform="translate(-302.28 -433.86)"/></g><text class="cls-20" transform="translate(116.96 78.25)">F</text><g class="cls-17"><path class="cls-26" d="M442.86,522.63a3.73,3.73,0,1,1-3.73-3.73A3.73,3.73,0,0,1,442.86,522.63Z" transform="translate(-302.28 -433.86)"/></g><text class="cls-20" transform="translate(134.17 78.25)">S</text><polygon class="cls-27" points="68.03 65.36 70.49 61.11 65.58 61.11 68.03 65.36 70.49 61.11 65.58 61.11 68.03 65.36"/><g class="cls-17"><rect class="cls-28" x="92.51" y="185.09" width="3.02" height="78.53"/></g><rect class="cls-29" x="92.51" y="219.3" width="3.02" height="44.32"/><g class="cls-17"><rect class="cls-30" x="36.62" y="185.09" width="3.02" height="78.53"/></g><rect class="cls-31" x="36.62" y="232.07" width="3.02" height="31.55"/><g class="cls-17"><rect class="cls-32" x="55.25" y="185.09" width="3.02" height="78.53"/></g><rect class="cls-33" x="55.25" y="219.3" width="3.02" height="44.32"/><g class="cls-17"><rect class="cls-34" x="73.88" y="185.09" width="3.02" height="78.53"/></g><rect class="cls-35" x="73.88" y="198.88" width="3.02" height="64.74"/><g class="cls-17"><rect class="cls-36" x="111.14" y="185.09" width="3.02" height="78.53"/></g><rect class="cls-37" x="111.14" y="249.43" width="3.02" height="14.19"/><g class="cls-17"><rect class="cls-38" x="129.77" y="185.09" width="3.02" height="78.53"/></g><rect class="cls-39" x="129.77" y="234.37" width="3.02" height="29.25"/><text class="cls-40" transform="translate(36.62 168.81)"><tspan class="cls-41">L</tspan><tspan class="cls-42" x="2.72" y="0">ast 7 D</tspan><tspan class="cls-43" x="18.73" y="0">a</tspan><tspan class="cls-44" x="21.43" y="0">y</tspan><tspan x="24.06" y="0">s</tspan></text><rect class="cls-45" x="26.59" y="131.51" width="54.36" height="24.44"/><rect class="cls-46" x="26.59" y="131.51" width="2.96" height="24.44"/><text class="cls-47" transform="translate(48.37 142.25)">H<tspan class="cls-48" x="2.9" y="0">e</tspan><tspan x="5.12" y="0">a</tspan><tspan class="cls-49" x="7.34" y="0">r</tspan><tspan x="8.94" y="0">t </tspan><tspan class="cls-50" x="11.52" y="0">r</tspan><tspan x="13.04" y="0">a</tspan><tspan class="cls-51" x="15.26" y="0">t</tspan><tspan x="16.76" y="0">e</tspan></text><text class="cls-52" transform="translate(48.37 146.5)">90</text><circle class="cls-53" cx="39.02" cy="143.72" r="5.84"/><path class="cls-45" d="M343.93,577.54a1.75,1.75,0,0,1-.12.32,4.13,4.13,0,0,1-2,1.86l-.23.1a.65.65,0,0,1-.21.07,2,2,0,0,1-1-.36,4.47,4.47,0,0,1-.89-.66,3,3,0,0,1-.73-1h.72a.11.11,0,0,0,.08,0l1-.86.66,1.82a.12.12,0,0,0,.1.08h0a.11.11,0,0,0,.11-.06l.82-1.26Z" transform="translate(-302.28 -433.86)"/><path class="cls-45" d="M344,577.29h-1.79a.15.15,0,0,0-.12.05l-.71,1.1-.64-1.74a.11.11,0,0,0-.08-.09.15.15,0,0,0-.13,0l-1.11,1h-.76a1.17,1.17,0,0,1-.06-.2c-.21-.89.11-2.09,1.19-2.12a1.75,1.75,0,0,1,1.36.67.17.17,0,0,0,.25,0,3.23,3.23,0,0,1,.35-.34,1.44,1.44,0,0,1,2,.15,1.59,1.59,0,0,1,.29.87A2.4,2.4,0,0,1,344,577.29Z" transform="translate(-302.28 -433.86)"/><rect class="cls-45" x="88" y="131.51" width="53.76" height="24.44"/><rect class="cls-54" x="88" y="131.51" width="2.96" height="24.44"/><text class="cls-47" transform="translate(111.64 142.25)">Dista<tspan class="cls-55" x="9.74" y="0">n</tspan><tspan class="cls-56" x="12.25" y="0">c</tspan><tspan x="14.34" y="0">e</tspan></text><text class="cls-52" transform="translate(111.64 146.5)">12 <tspan class="cls-57" x="4.28" y="0">k</tspan><tspan x="6.41" y="0">m</tspan></text><circle class="cls-58" cx="102.29" cy="143.72" r="5.84"/><path class="cls-45" d="M408.22,576.48a.07.07,0,0,0-.06,0c-.87,1.09-3.26,1.19-3.29,1.19h0l0,0a5.86,5.86,0,0,1-4.19.72h0c0-.37.27-.74,1.15-.86,1.74-.24,2-2.22,2-2.22,3.08,1,2.87-1,2.87-1C407.63,574.68,408.11,576.07,408.22,576.48Z" transform="translate(-302.28 -433.86)"/><path class="cls-45" d="M407.58,578.14a4.87,4.87,0,0,1-2.44.51,4.64,4.64,0,0,1-4,.78,1,1,0,0,1-.45-.53,5.47,5.47,0,0,0,1.12.1,6.17,6.17,0,0,0,3.15-.86c.33,0,2.52-.17,3.43-1.27C408.66,577.22,408.73,577.57,407.58,578.14Z" transform="translate(-302.28 -433.86)"/></svg>