<svg xmlns="http://www.w3.org/2000/svg" xmlns:xlink="http://www.w3.org/1999/xlink" viewBox="0 0 311.72 311.72"><defs><style>.cls-1{isolation:isolate;}.cls-2{fill:url(#Degradado_sin_nombre_19);}.cls-3{fill:url(#Degradado_sin_nombre_20);}.cls-4{fill:url(#Degradado_sin_nombre_25);}.cls-5{fill:url(#Degradado_sin_nombre_23);}.cls-6{opacity:0.45;mix-blend-mode:screen;fill:url(#Degradado_sin_nombre_19-2);}</style><linearGradient id="Degradado_sin_nombre_19" x1="780.88" y1="394.63" x2="1054.27" y2="218.1" gradientUnits="userSpaceOnUse"><stop offset="0" stop-color="#ff0"/><stop offset="0.88" stop-color="#d82c75"/></linearGradient><linearGradient id="Degradado_sin_nombre_20" x1="804.96" y1="356.51" x2="1122.46" y2="356.51" gradientUnits="userSpaceOnUse"><stop offset="0" stop-color="#ff0"/><stop offset="1" stop-color="#fb3767"/></linearGradient><linearGradient id="Degradado_sin_nombre_25" x1="846.99" y1="536.08" x2="1015.3" y2="367.78" gradientUnits="userSpaceOnUse"><stop offset="0" stop-color="#d12b6e"/><stop offset="1" stop-color="#440059"/></linearGradient><linearGradient id="Degradado_sin_nombre_23" x1="836.3" y1="491.3" x2="1037.4" y2="290.21" gradientUnits="userSpaceOnUse"><stop offset="0" stop-color="#ff4a3d"/><stop offset="1" stop-color="#93038b"/></linearGradient><linearGradient id="Degradado_sin_nombre_19-2" x1="878.99" y1="271.03" x2="1023.81" y2="177.52" gradientTransform="matrix(0.92, -0.38, 0.3, 0.72, -71.76, 490.7)" xlink:href="#Degradado_sin_nombre_19"/></defs><title>Untitled-1</title><g class="cls-1"><g id="Layer_1" data-name="Layer 1"><path class="cls-2" d="M825.91,398.22c32.12,10.33,63.36,2.91,92.45-17.56,18.34-12.9,34.08-28.89,49.75-44.92s33.47-31.42,55.24-36.75a70.64,70.64,0,0,1,47.79,5.4,155.84,155.84,0,0,0-289,55.38C795.41,388.62,825.91,398.22,825.91,398.22Z" transform="translate(-780.48 -226.73)"/><path class="cls-3" d="M824.46,409.86c32.32,12,64.55,5.82,95.17-13.77,19.3-12.34,36.09-28,52.81-43.62s35.58-30.57,58-35a72.16,72.16,0,0,1,51.36,9.31,154.54,154.54,0,0,0-10.71-22.35,70.64,70.64,0,0,0-47.79-5.4c-21.77,5.33-39.57,20.72-55.24,36.75s-31.41,32-49.75,44.92c-29.09,20.47-60.33,27.89-92.45,17.56,0,0-30.5-9.6-43.75-38.45-.39,2.66-.7,5.34-1,8C793.2,398.48,824.46,409.86,824.46,409.86Z" transform="translate(-780.48 -226.73)"/><path class="cls-4" d="M1040.4,409.34c-17.39,4-32.8,14-47,24.76S965.58,456.72,950,465.43A127.9,127.9,0,0,1,790.15,436.7a155.87,155.87,0,0,0,297.93-18.58C1075.11,407.79,1056.69,405.57,1040.4,409.34Z" transform="translate(-780.48 -226.73)"/><path class="cls-5" d="M1081.85,326.74a72.16,72.16,0,0,0-51.36-9.31c-22.47,4.47-41.33,19.38-58,35s-33.51,31.28-52.81,43.62c-30.62,19.59-62.85,25.76-95.17,13.77,0,0-31.26-11.38-43.26-42.05-.46,4.87-.72,9.79-.72,14.78a155.33,155.33,0,0,0,9.67,54.11A127.9,127.9,0,0,0,950,465.43c15.58-8.71,29.14-20.55,43.37-31.33s29.64-20.74,47-24.76c16.29-3.77,34.71-1.55,47.68,8.78a155.63,155.63,0,0,0-6.23-91.38Z" transform="translate(-780.48 -226.73)"/><path class="cls-6" d="M846.46,344.66c18.12-2.7,32.88-12.26,44.39-26.53,7.26-9,12.69-18.67,18.07-28.34s12-19.54,22.22-26.26l.23-.15c8.56-5.54,7.57-15.76-1.81-17.24-17-2.68-36.16-.54-54.77,7.16-33.33,13.8-55.31,41.48-57.89,68.93-1.32,14.11,11.64,24.36,28.58,22.55C846.11,344.72,846.46,344.66,846.46,344.66Z" transform="translate(-780.48 -226.73)"/></g></g></svg>